<svg width="100%" height="100%" viewBox="0 0 32 32" xmlns="http://www.w3.org/2000/svg">
  <defs>
    <linearGradient id="waGrad" x1="0%" y1="0%" x2="100%" y2="100%">
      <stop offset="0%" stop-color="#25D366"/>
      <stop offset="100%" stop-color="#128C7E"/>
    </linearGradient>
  </defs>
  <circle cx="16" cy="16" r="14" fill="url(#waGrad)"/>
  <path d="M10.5 9.5c.3-.7.6-.7 1-.7h1c.3 0 .7.5.8.9.2.6.6 1.9.6 1.9 0 .2 0 .4-.1.6-.2.3-.5.7-.6.8-.1.1-.1.3 0 .5.1.2.5.9 1.1 1.5.7.7 1.4 1.1 1.6 1.2.2.1.4.1.6 0 .2-.2.8-.9 1-1.2.3-.3.5-.2.8-.1.3.1 1.8.9 2.1 1.1.3.2.5.3.5.6 0 .3-.1 1.6-.7 2.3-.6.7-1.4.8-1.9.8-.5 0-1.1-.1-1.8-.4-.8-.3-1.7-.8-2.7-1.5-.9-.6-1.7-1.4-2.5-2.3-.6-.7-1.1-1.5-1.5-2.1-.4-.7-.7-1.3-.9-1.9-.2-.6-.2-1.1-.2-1.5 0-.5.2-1.1.4-1.5z" fill="#ffffff"/>
</svg>
